<?xml version="1.0" standalone="no"?>
<!DOCTYPE svg PUBLIC "-//W3C//DTD SVG 20010904//EN"
 "http://www.w3.org/TR/2001/REC-SVG-20010904/DTD/svg10.dtd">
<svg version="1.0" xmlns="http://www.w3.org/2000/svg"
 width="260.000000pt" height="260.000000pt" viewBox="0 0 260.000000 260.000000"
 preserveAspectRatio="xMidYMid meet">
<metadata>
Created by potrace 1.11, written by Peter Selinger 2001-2013
</metadata>
<g transform="translate(0.000000,260.000000) scale(0.100000,-0.100000)"
fill="#000000" stroke="none">
<path d="M1165 2593 c-304 -41 -547 -153 -753 -348 -275 -260 -417 -600 -408
-975 10 -352 133 -638 380 -885 193 -192 399 -304 666 -361 118 -25 381 -25
500 0 467 100 830 419 981 863 43 126 61 234 64 388 6 279 -65 521 -220 756
-63 94 -248 280 -341 341 -149 99 -323 171 -488 204 -77 15 -317 26 -381 17z
m75 -631 c22 -18 22 -21 22 -277 0 -143 -1 -277 -1 -297 -1 -40 -29 -78 -56
-78 -9 0 -26 10 -39 23 -21 22 -23 31 -23 141 0 64 -4 121 -10 127 -18 18 -38
-1 -71 -64 -18 -34 -47 -89 -65 -122 -18 -33 -57 -105 -87 -160 -29 -55 -63
-119 -76 -142 -89 -163 -181 -350 -177 -360 3 -9 37 -13 118 -13 105 0 116 -2
135 -22 25 -28 26 -52 0 -78 -19 -19 -33 -20 -201 -20 -99 0 -189 4 -199 10
-43 23 -35 52 71 258 115 223 199 383 239 457 15 28 53 100 85 160 55 104 218
398 246 443 12 20 27 28 55 31 7 0 22 -7 34 -17z m171 -1 l24 -19 0 -296 c-1
-316 0 -315 -51 -330 -14 -4 -30 0 -45 12 l-23 19 0 298 0 298 23 18 c29 24
43 24 72 0z m404 3 c154 -39 266 -163 295 -324 37 -206 -87 -407 -290 -467
-46 -13 -115 -16 -405 -17 -339 -2 -391 2 -407 27 -12 19 -9 51 6 72 13 18 32
19 372 21 338 1 362 2 417 22 76 27 139 79 167 139 19 38 23 65 24 133 0 97
-20 153 -74 209 -59 60 -107 75 -270 79 -113 3 -149 7 -162 20 -24 20 -23 57
2 82 18 18 33 20 143 20 79 0 144 -6 182 -16z m180 -814 c73 -45 119 -139 119
-240 0 -110 -59 -206 -158 -258 l-51 -27 -362 -3 c-354 -3 -362 -3 -382 17
-20 20 -21 32 -21 226 0 192 1 206 20 225 24 24 57 26 82 3 16 -14 18 -34 18
-180 0 -139 2 -165 16 -170 33 -12 39 15 40 170 2 180 0 162 20 181 19 20 53
20 79 1 18 -14 19 -29 20 -179 0 -91 4 -168 7 -172 4 -4 102 -7 218 -6 199 0
212 2 250 23 48 27 77 69 86 126 9 59 -11 111 -64 160 -31 28 -44 49 -44 67 0
56 48 72 107 36z"/>
</g>
</svg>
